<svg xmlns="http://www.w3.org/2000/svg" viewBox="0 0 600 360" width="600" height="360"><defs><linearGradient id="bg" x1="0" y1="0" x2="1" y2="1"><stop offset="0" stop-color="#1b100a"/><stop offset="1" stop-color="#070403"/></linearGradient><radialGradient id="gl" cx=".5" cy=".5" r=".5"><stop offset="0" stop-color="#F0A030" stop-opacity="0.38"/><stop offset="1" stop-color="#F0A030" stop-opacity="0"/></radialGradient><linearGradient id="bun" x1="0" y1="0" x2="0" y2="1"><stop offset="0" stop-color="#F6C266"/><stop offset="1" stop-color="#C77C22"/></linearGradient></defs><rect x="0" y="0" width="600" height="360" rx="0" fill="url(#bg)" /><circle cx="452" cy="195" r="175" fill="url(#gl)"/><text x="28" y="32" font-family="Helvetica Neue,Helvetica,Arial,sans-serif" font-size="13" font-weight="800" letter-spacing="2.2" fill="#fff" text-anchor="start">BURGER HOUSE</text><rect x="338" y="28" width="34" height="4" rx="2" fill="#fff" fill-opacity="0.38" /><rect x="386" y="28" width="34" height="4" rx="2" fill="#fff" fill-opacity="0.38" /><rect x="434" y="28" width="34" height="4" rx="2" fill="#fff" fill-opacity="0.38" /><rect x="486" y="17" width="86" height="26" rx="13" fill="#F0A030" /><text x="529" y="34" font-family="Helvetica Neue,Helvetica,Arial,sans-serif" font-size="8.5" font-weight="800" letter-spacing="1.2" fill="#1a0f09" text-anchor="middle">PEDIR</text><rect x="28" y="96" width="26" height="3" rx="1.5" fill="#F0A030" /><text x="62" y="100" font-family="Helvetica Neue,Helvetica,Arial,sans-serif" font-size="8.5" font-weight="700" letter-spacing="2" fill="#F0A030" text-anchor="start">HAMBÚRGUER ARTESANAL</text><text x="28" y="152" font-family="Helvetica Neue,Helvetica,Arial,sans-serif" font-size="50" font-weight="900" letter-spacing="-1" fill="#fff" text-anchor="start">SABOR</text><text x="28" y="200" font-family="Helvetica Neue,Helvetica,Arial,sans-serif" font-size="42" font-weight="900" letter-spacing="-1" fill="#F0A030" text-anchor="start">ARTESANAL</text><rect x="28" y="222" width="220" height="5" rx="2.5" fill="#fff" fill-opacity="0.22" /><rect x="28" y="236" width="168" height="5" rx="2.5" fill="#fff" fill-opacity="0.16" /><rect x="28" y="268" width="118" height="36" rx="18" fill="#F0A030" /><text x="87" y="290" font-family="Helvetica Neue,Helvetica,Arial,sans-serif" font-size="8.5" font-weight="800" letter-spacing="1" fill="#1a0f09" text-anchor="middle">FAZER PEDIDO</text><rect x="156" y="268" width="96" height="36" rx="18" fill="none" stroke="rgba(255,255,255,.35)" stroke-width="1" /><text x="204" y="290" font-family="Helvetica Neue,Helvetica,Arial,sans-serif" font-size="8.5" font-weight="700" letter-spacing="1" fill="#fff" text-anchor="middle">CARDÁPIO</text><ellipse cx="452" cy="312" rx="98" ry="10" fill="#000" fill-opacity=".45"/><rect x="366" y="268" width="172" height="30" rx="15" fill="url(#bun)" /><rect x="360" y="240" width="184" height="32" rx="16" fill="#4b2a19" /><path d="M360 242 H544 L528 262 Q505 250 482 262 Q452 250 424 262 Q394 250 376 262 Z" fill="#F5C244" /><path d="M362 232 Q380 246 400 232 Q420 248 442 232 Q464 248 486 232 Q508 248 528 232 Q540 240 544 232 V222 H360Z" fill="#79b35a" /><rect x="368" y="212" width="164" height="16" rx="8" fill="#cf4a32" /><path d="M364 214 C364 150 540 150 540 214 Z" fill="url(#bun)" /><ellipse cx="418" cy="176" rx="7" ry="3.5" fill="#fbe3b0" transform="rotate(-20 418 176)"/><ellipse cx="452" cy="168" rx="7" ry="3.5" fill="#fbe3b0" transform="rotate(10 452 168)"/><ellipse cx="486" cy="178" rx="7" ry="3.5" fill="#fbe3b0" transform="rotate(25 486 178)"/><ellipse cx="436" cy="192" rx="7" ry="3.5" fill="#fbe3b0" transform="rotate(5 436 192)"/><ellipse cx="472" cy="194" rx="7" ry="3.5" fill="#fbe3b0" transform="rotate(-15 472 194)"/><rect x="506" y="92" width="68" height="40" rx="12" fill="#0f0a07" stroke="#F0A030" stroke-width="1" /><text x="540" y="116" font-family="Helvetica Neue,Helvetica,Arial,sans-serif" font-size="10" font-weight="800" letter-spacing="2" fill="#F0A030" text-anchor="middle">NOVO</text></svg>